<?xml version="1.0" encoding="UTF-8"?><svg id="Layer_4" xmlns="http://www.w3.org/2000/svg" viewBox="0 0 398 398"><path d="m247.19,244.32c2.73-11.36,8.54-22.86,8.54-22.86-16.08,2.26-24.65,4.46-24.65,4.46,0,0,11.3,12.31,16.11,18.4Z"/><path d="m237.16,181.92c21.6,0,39.11-17.05,39.11-38.08s-17.51-38.09-39.11-38.09-39.11,17.05-39.11,38.09,17.51,38.08,39.11,38.08Z"/><path d="m199,0C89.1,0,0,89.1,0,199s89.1,199,199,199,199-89.1,199-199S308.9,0,199,0Zm38.16,92.03c29.38,0,53.2,23.19,53.2,51.81s-23.82,51.8-53.2,51.8-53.2-23.19-53.2-51.8,23.82-51.81,53.2-51.81Zm105.05,36.55c-9.3,6.98-24.87,19.79-34.73,31.07-18.96,21.7-27.19,42.49-27.19,42.49,18.96,1.6,44.55,4.57,48.89,24.44,4.34,19.88-19.19,30.39-19.19,30.39,0,0,38.16,14.85,18.28,38.61-17.59,21.02-51.17,4.11-55.75,1.15-4.57-2.97-13.02-12.11-10.05-13.25,4.1-1.58,5.25,9.6,29.24,14.85,13,2.85,31.53-2.74,32.9-13.93,1.41-11.56-13.99-14.86-29.01-21.48-9.21-4.06-7.79-12.5-2.23-14.09,2.97-.85,10.13-2.93,12.45-3.71,4.77-1.58,10.76-6.03,9.42-14.65-2-12.9-42.27-10.97-42.27-10.97,0,0-7.08,17.37-10.28,34.96-3.2,17.6-5.35,20.86-11.43,21.02-7.48.2-13.77-11.26-22.54-21.62-2.91-3.44-19.27-21.34-19.27-21.34-67.17,20.79-131.14,63.06-131.14,63.06,0,0-10.05,9.83-14.85-.23-2.19-4.58,7.7-14.76,17.59-28.33,15.99-21.93,21.57-38.76,26.05-52.32,8.22-24.9,13.02-64.88,16-64.88s1.83,7.99,1.83,7.99c-.98,9.94-3.01,20.4-4.11,28.79-7.54,57.35-26.73,80.42-26.73,80.42,54.6-36.1,101.21-52.55,101.21-52.55-15.3-16.22-36.78-43.87-76.3-74.94-39.53-31.07-68.32-39.52-73.34-40.44-5.03-.91-4.34-3.65-4.34-3.65.43-.43,1.02-.87,2.62-.93h0c2.66-.11,8.11.83,20.23,4.59,19.88,6.17,52.55,22.62,87.5,49.81,34.96,27.19,64.88,59.63,64.88,59.63,21.02-5.02,48.66-6.39,48.66-6.39,17.14-30.62,37.7-50.72,44.78-57.12,7.08-6.39,44.09-33.12,46.38-28.56,2.01,4.03-5.03,5.25-14.16,12.11Z"/></svg>