<?xml version="1.0" encoding="UTF-8"?><svg id="Layer_2" xmlns="http://www.w3.org/2000/svg" viewBox="0 0 398 398"><path d="m199,0C89.1,0,0,89.1,0,199s89.1,199,199,199,199-89.1,199-199S308.9,0,199,0Zm46.02,326.23c0,11.6-9.4,21-21,21h-58.19l6.79,6.79c2.09,2.01,2.14,5.34.13,7.42s-5.34,2.14-7.42.13c-.04-.04-.09-.09-.13-.13l-12.04-12.04c-4.1-4.1-4.1-10.74,0-14.84l12.04-12.04c2.09-2.01,5.41-1.96,7.42.13,1.96,2.03,1.96,5.26,0,7.29l-6.79,6.79h58.19c5.8,0,10.5-4.7,10.5-10.5v-10.5c0-2.9,2.35-5.25,5.25-5.25s5.25,2.35,5.25,5.25v10.5Zm-2.62-39.82l-12.04,12.04c-2.09,2.01-5.41,1.96-7.42-.13-1.96-2.03-1.96-5.26,0-7.29l6.79-6.79h-58.19c-5.8,0-10.5,4.7-10.5,10.5v10.5c0,2.9-2.35,5.25-5.25,5.25s-5.25-2.35-5.25-5.25v-10.5c0-11.6,9.4-21,21-21h58.19l-6.79-6.79c-2.05-2.05-2.05-5.37,0-7.42,2.05-2.05,5.37-2.05,7.42,0l12.04,12.04c4.1,4.1,4.1,10.74,0,14.84Zm61.2-149.23c-7.96,28.46-36.99,35.72-62.8,31.33,45.12,7.68,56.6,33.12,31.81,58.56-47.08,48.31-67.67-12.12-72.95-27.61-.97-2.84-1.42-4.17-1.43-3.04,0-1.13-.46.2-1.43,3.04-5.28,15.49-25.86,75.92-72.95,27.61-24.79-25.44-13.31-50.88,31.81-58.56-25.82,4.39-54.84-2.87-62.8-31.33-2.29-8.19-6.2-58.61-6.2-65.43,0-34.12,29.91-23.4,48.36-9.54h0c25.58,19.2,53.1,58.14,63.2,79.04,10.1-20.9,37.62-59.84,63.2-79.04,18.46-13.86,48.36-24.58,48.36,9.54,0,6.81-3.91,57.24-6.2,65.43Z"/></svg>