<?xml version="1.0" encoding="UTF-8"?><svg id="Layer_2" xmlns="http://www.w3.org/2000/svg" viewBox="0 0 398 398"><path d="m199,0C89.1,0,0,89.1,0,199s89.1,199,199,199,199-89.1,199-199S308.9,0,199,0Zm.74,371c-35.01,0-51,2.55-51-16.5s22.16-34.5,49.5-34.5,49.5,15.45,49.5,34.5-20,16.5-48,16.5Zm-29-85.5c0-15.19,12.31-27.5,27.5-27.5s27.5,12.31,27.5,27.5-12.31,27.5-27.5,27.5-27.5-12.31-27.5-27.5Zm132.86-148.31c-7.96,28.46-36.99,35.72-62.8,31.33,45.12,7.68,56.6,33.12,31.81,58.56-47.08,48.31-67.67-12.12-72.95-27.61-.97-2.84-1.42-4.17-1.43-3.04,0-1.13-.46.2-1.43,3.04-5.28,15.49-25.86,75.92-72.95,27.61-24.79-25.44-13.31-50.88,31.81-58.56-25.82,4.39-54.84-2.87-62.8-31.33-2.29-8.19-6.2-58.61-6.2-65.43,0-34.12,29.91-23.4,48.36-9.54h0c25.58,19.2,53.1,58.14,63.2,79.04,10.1-20.9,37.62-59.84,63.2-79.04,18.46-13.86,48.36-24.58,48.36,9.54,0,6.81-3.91,57.24-6.2,65.43Z"/></svg>