<?xml version="1.0" encoding="UTF-8"?><svg id="Layer_4" xmlns="http://www.w3.org/2000/svg" viewBox="0 0 398.51 398.13"><path d="m155.27,183.86c-13.45,0-23.91,10.97-23.91,24.35s10.84,24.26,23.96,24.26,23.71-10.88,23.94-24.26c.23-13.38-10.52-24.35-23.98-24.35Z"/><path d="m243.69,183.86c-13.47,0-23.94,10.97-23.94,24.35s10.8,24.26,23.94,24.26,23.68-10.88,23.91-24.26c.23-13.38-10.44-24.35-23.91-24.35Z"/><path d="m199.25,0C89.21,0,0,89.12,0,199.07s89.21,199.07,199.25,199.07,199.25-89.12,199.25-199.07S309.3,0,199.25,0Zm132.13,260.24c-20.34,13.74-43.13,24.18-67.35,30.85-5.45-6.69-10.28-13.78-14.42-21.22,7.88-2.69,15.49-6.01,22.74-9.92-1.88-1.17-3.75-2.47-5.57-3.82-42.62,18.31-91.96,18.31-134.58,0-1.8,1.26-3.66,2.56-5.57,3.82,7.23,3.9,14.83,7.22,22.7,9.9-4.14,7.44-8.97,14.54-14.42,21.24-24.2-6.7-46.97-17.14-67.31-30.87-4.71-45.13,4.71-90.9,39.44-137.85,17.49-7.31,35.96-12.51,54.92-15.46,2.59,4.24,4.94,8.59,7.03,13.05,20.19-2.78,40.72-2.78,60.91,0,2.09-4.46,4.44-8.82,7.03-13.05,18.95,2.93,37.4,8.12,54.88,15.42,30.11,40.22,45.07,85.57,39.54,137.91Z"/></svg>