<?xml version="1.0" encoding="UTF-8"?><svg xmlns="http://www.w3.org/2000/svg" viewBox="0 0 398.51 398.13"><defs><style>.cls-1{fill:#fcee3f;}.cls-2{fill:#dfba24;}.cls-3{fill:#4d4118;}.cls-4{fill:#f7cd29;}.cls-5{fill:#1e1e1e;}</style></defs><g id="Layer_3"><ellipse cx="199.25" cy="199.07" rx="199.25" ry="199.07"/></g><g id="Layer_4"><g><path class="cls-5" d="m274.87,95.33h43.63v-20.93h-21.82v-41.87h-65.45v41.87h21.82v-20.93h21.82v20.93h-21.82v62.8h21.82v-41.87Z"/><path class="cls-3" d="m274.87,53.46h-21.82v20.93h21.82v-20.93Z"/><path class="cls-1" d="m56.69,262.8v20.93h152.72v-20.93h43.63v-20.94h21.82v-20.93h21.82v-125.61h-21.82v41.87h-21.82v62.8h-21.82v20.94h-21.82v20.93h-43.63v20.94H56.69Z"/><path class="cls-4" d="m223.05,325.61h8.18v-20.93h21.82v-20.93h21.82v-20.93h21.82v-20.94h21.82V95.33h-21.82v125.61h-21.82v20.93h-21.82v20.94h-43.63v20.93H56.69v20.93h21.82v20.93h144.54Z"/><path class="cls-5" d="m340.32,116.26v-20.93h-21.82v20.93h21.82Z"/><path class="cls-2" d="m318.5,116.26v125.6h-21.82v20.94h-21.82v20.93h-21.82v20.93h-21.82v20.93h-109.09v20.93h130.9v-20.93h43.64v-20.93h21.82v-41.87h21.82V116.26h-21.82Z"/><path class="cls-5" d="m340.32,116.26v146.54h21.82V116.26h-21.82Z"/><path class="cls-5" d="m253.05,137.2h-21.82v62.8h21.82v-62.8Z"/><path class="cls-5" d="m231.23,200h-21.82v20.94h21.82v-20.94Z"/><path class="cls-5" d="m209.41,220.93h-43.63v20.93h43.63v-20.93Z"/><path class="cls-5" d="m56.69,262.8h109.09v-20.94H34.87v62.8h21.82v-41.87Z"/><path class="cls-5" d="m318.5,304.67h21.82v-41.87h-21.82v41.87Z"/><path class="cls-5" d="m56.69,304.67v20.93h21.82v-20.93h-21.82Z"/><path class="cls-5" d="m296.69,325.61h21.82v-20.93h-21.82v20.93Z"/><path class="cls-5" d="m78.51,325.61v20.93h43.64v-20.93h-43.64Z"/><path class="cls-5" d="m253.05,346.54h43.64v-20.93h-43.64v20.93Z"/><path class="cls-5" d="m122.14,367.47h130.9v-20.93H122.14v20.93Z"/></g></g></svg>