<?xml version="1.0" encoding="UTF-8"?><svg id="Layer_4" xmlns="http://www.w3.org/2000/svg" viewBox="0 0 398.51 393.62"><path d="m199.25,0C89.21,0,0,89.12,0,199.07c0,95.44,67.24,175.18,156.97,194.56,1.8-1.96,2.57-4.62,2.57-7.06,0-4.66-.33-20.62-.33-37.26-55.47,11.98-67.03-23.95-67.03-23.95-8.91-23.28-22.12-29.27-22.12-29.27-18.16-12.31,1.32-12.31,1.32-12.31,20.14,1.33,30.71,20.62,30.71,20.62,17.83,30.6,46.55,21.95,58.11,16.63,1.65-12.97,6.94-21.95,12.55-26.94-44.24-4.66-90.79-21.95-90.79-99.12,0-21.95,7.92-39.91,20.47-53.88-1.98-4.99-8.92-25.61,1.98-53.22,0,0,16.84-5.32,54.8,20.62,16.25-4.4,33.02-6.63,49.86-6.65,16.84,0,34,2.33,49.85,6.65,37.97-25.94,54.81-20.62,54.81-20.62,10.9,27.61,3.96,48.23,1.98,53.22,12.88,13.97,20.47,31.93,20.47,53.88,0,77.17-46.55,94.13-91.13,99.12,7.27,6.32,13.54,18.29,13.54,37.25,0,26.94-.33,48.56-.33,55.21,0,.86.1,1.74.3,2.6,81.08-25.22,139.94-100.79,139.94-190.1C398.51,89.12,309.3,0,199.25,0Z"/></svg>