<?xml version="1.0" encoding="UTF-8"?><svg id="Layer_3" xmlns="http://www.w3.org/2000/svg" viewBox="0 0 398.51 398.13"><path d="m199.25,0C89.21,0,0,89.12,0,199.07s89.21,199.07,199.25,199.07,199.25-89.12,199.25-199.07S309.3,0,199.25,0Zm-1.48,61.82l116.65,27.28-6.7,7.42H87.82l-6.7-7.42,116.65-27.28Zm-111.38,65.8v-23.93h222.77v23.93H86.39Zm222.27,100.74c-.15,9.24-.35,18.48-.73,27.72-.4,9.91-1.02,19.81-1.57,29.72-.1,1.9-.3,3.79-.45,5.64-3.66.95-7.28,1.5-10.91,1.55-3.62-.05-7.25-.6-10.91-1.55-.15-1.84-.34-3.74-.45-5.64-.54-9.9-1.16-19.81-1.56-29.72-.37-9.23-.58-18.48-.73-27.72-.13-8.33-.22-16.66-.08-24.99.19-11.75.5-23.5.96-35.25.43-11.06,1.15-22.12,1.68-33.18.05-.96.45-1.16,1.24-1.33,3.26-.71,6.54-1.05,9.84-1.05,3.29,0,6.58.34,9.84,1.05.79.17,1.2.38,1.24,1.33.54,11.06,1.25,22.11,1.68,33.18.46,11.74.76,23.49.96,35.25.14,8.33.05,16.66-.08,24.99Zm-59.22,0c-.15,9.24-.35,18.48-.73,27.72-.4,9.91-1.02,19.81-1.57,29.72-.1,1.9-.3,3.79-.45,5.64-3.66.95-7.28,1.5-10.91,1.55-3.62-.05-7.25-.6-10.91-1.55-.15-1.84-.34-3.74-.45-5.64-.54-9.9-1.16-19.81-1.57-29.72-.37-9.23-.58-18.48-.73-27.72-.13-8.33-.22-16.66-.08-24.99.19-11.75.5-23.5.96-35.25.43-11.06,1.15-22.12,1.68-33.18.05-.96.45-1.16,1.24-1.33,3.26-.71,6.54-1.05,9.84-1.05,3.29,0,6.57.34,9.84,1.05.79.17,1.2.38,1.24,1.33.54,11.06,1.25,22.11,1.68,33.18.46,11.74.77,23.49.96,35.25.14,8.33.05,16.66-.08,24.99Zm-70.34,0c-.15,9.24-.35,18.48-.73,27.72-.4,9.91-1.02,19.81-1.56,29.72-.1,1.9-.3,3.79-.45,5.64-3.66.95-7.28,1.5-10.91,1.55-3.62-.05-7.25-.6-10.91-1.55-.15-1.84-.34-3.74-.45-5.64-.54-9.9-1.16-19.81-1.57-29.72-.37-9.23-.58-18.48-.73-27.72-.13-8.33-.22-16.66-.08-24.99.19-11.75.5-23.5.96-35.25.43-11.06,1.15-22.12,1.68-33.18.05-.96.45-1.16,1.24-1.33,3.26-.71,6.54-1.05,9.84-1.05,3.29,0,6.57.34,9.84,1.05.79.17,1.2.38,1.24,1.33.54,11.06,1.25,22.11,1.68,33.18.46,11.74.77,23.49.96,35.25.14,8.33.05,16.66-.08,24.99Zm-60.65,0c-.15,9.24-.35,18.48-.73,27.72-.4,9.91-1.02,19.81-1.57,29.72-.1,1.9-.3,3.79-.45,5.64-3.66.95-7.28,1.5-10.91,1.55-3.62-.05-7.25-.6-10.91-1.55-.15-1.84-.34-3.74-.45-5.64-.54-9.9-1.16-19.81-1.57-29.72-.37-9.23-.58-18.48-.73-27.72-.13-8.33-.22-16.66-.08-24.99.19-11.75.5-23.5.96-35.25.43-11.06,1.15-22.12,1.68-33.18.05-.96.45-1.16,1.24-1.33,3.26-.71,6.54-1.05,9.84-1.05,3.29,0,6.57.34,9.84,1.05.79.17,1.2.38,1.24,1.33.54,11.06,1.25,22.11,1.68,33.18.46,11.74.76,23.49.96,35.25.14,8.33.05,16.66-.08,24.99Zm-30.62,71.54h223.96v17.23H87.82v-17.23Zm233.06,36.37H78.25v-12.44h242.63v12.44Z"/></svg>