<?xml version="1.0" encoding="UTF-8"?><svg id="Layer_2" xmlns="http://www.w3.org/2000/svg" viewBox="0 0 398.51 398.13"><path d="m199.25,0C89.21,0,0,89.12,0,199.07s89.21,199.07,199.25,199.07,199.25-89.12,199.25-199.07S309.3,0,199.25,0Zm69.28,157.52l-9.48-3.91c2.47,10.64,2.28,21.15.43,29.08.54,2.63.95,5.27,1.3,7.47.84,5.24,1.71,10.67,3.29,15.53,3.77,11.57,1.11,23.76-7.71,35.3-7.25,9.5-17.38,16.59-24.17,19.36-1.19.49-2.17.95-2.99,1.33l1.49,35.6c.33,2.47.81,9.91-3.61,15.86l-.33.41c-9.39,11.02-33.53,21.69-58.65,25.96-8.45,1.47-17,2.22-25.58,2.25-25.74,0-42.76-7.03-46.89-19.36-.73-1.75-1.04-3.65-.9-5.54.02-2.92.7-5.8,1.98-8.42l9.48-36.17c.33-1.25.87-2.44,1.57-3.53.3-.48.63-.94.98-1.38,1.58-2.04,3.33-3.94,5.24-5.67l1.44-8.55c.08-.35.14-.62.19-.87.87-3.69,2.04-14.8-2.69-21.69-9.77-14.23-18.25-40.35-15.15-66.6.84-7.2,3.64-14.06,8.31-20.42l.24-.33c3.69-4.94,8.53-9.5,14.31-13.55,4.53-3.12,9.33-5.84,14.34-8.12.98-2.1,2.18-4.08,3.58-5.92,1.73-2.25,3.75-4.27,6-6,1.23-.96,2.54-1.82,3.91-2.58l-6.57-3.58,21.56-.52c.27,0,.52-.03.76-.03h.22l5.78-.14-11.21-22.64,33.64,14.55-4.48-29.41,17.43,27.4,11.3-36.3,5.7,38.66,28.08-31.99-7.71,39.15,43.36-7.22-28.05,23.57,43.66,2.63-41.9,11.4,43.72,13.55-47.82-2.34,12.57,13.71Z"/><path d="m171.28,274.39c-2.28-1.93-4.91-3.88-7.41-5.65,1.98-2.31,4.13-4.48,6.3-6.11,1.48-1.12,1.78-3.23.67-4.71-1.12-1.48-3.23-1.78-4.71-.67-2.77,2.09-5.43,4.83-7.85,7.68-2.31-1.52-3.94-2.53-4.1-2.63-1.56-.99-3.64-.53-4.63,1.03-.99,1.56-.53,3.64,1.03,4.63.02.01.05.03.07.04.03.03,1.44.9,3.5,2.25-2.07,2.86-3.98,5.82-5.73,8.88-.91,1.62-.34,3.67,1.28,4.59.41.24.86.38,1.33.41,1.33.12,2.61-.55,3.26-1.71,1.66-2.89,3.47-5.69,5.43-8.39,2.44,1.71,5.02,3.64,7.22,5.48.51.44,1.15.71,1.82.76,1.1.11,2.19-.32,2.91-1.17,1.2-1.36,1.08-3.43-.27-4.63-.03-.03-.07-.06-.11-.09Z"/><path d="m204.54,276.29c-.52-.73-2.96-4.15-6.08-7.96,1.26-.91,2.59-1.71,3.99-2.39,1.67-.81,2.36-2.81,1.55-4.48-.79-1.63-2.73-2.34-4.38-1.6-1.97.95-3.84,2.08-5.59,3.39-2.55-2.72-5.21-5.13-7.47-6.3-1.64-.87-3.68-.25-4.55,1.38-.87,1.64-.25,3.68,1.38,4.55.02.01.05.03.07.04,1.41.73,3.31,2.47,5.38,4.62-2.05,1.88-4,3.86-5.84,5.95-1.21,1.4-1.05,3.52.36,4.73.61.52,1.39.81,2.2.81.98,0,1.91-.43,2.55-1.17.05-.05,2.17-2.5,5.16-5.27,2.2,2.66,4.26,5.4,5.76,7.55.63.89,1.65,1.42,2.74,1.41.69,0,1.37-.21,1.93-.62,1.51-1,1.92-3.03.92-4.54-.02-.04-.05-.07-.07-.11Z"/><path d="m256.45,208.22c-1.76-5.46-2.69-11.21-3.58-16.75-.49-3.01-.98-6.03-1.6-8.93,2.93-10.26,2.47-27.21-5.51-41.46-2.2-3.94-4.96-7.53-8.2-10.67-.03-12.6-10.26-22.78-22.86-22.76-5.01.01-9.88,1.67-13.85,4.73-1.6,1.23-3.02,2.66-4.24,4.26-.05.05-.08.14-.14.19-5.18-.03-10.35.24-15.5.79-8.65-8.2-21.99-8.89-31.44-1.63-1.69,1.31-3.2,2.82-4.51,4.51-1.63,2.13-2.89,4.51-3.72,7.06-5.61,2.35-10.97,5.26-15.99,8.69-11.49,8.01-18.22,17.92-19.5,28.65-2.85,24.19,4.86,48.11,13.79,61.09,7.87,11.43,3.91,28.02,3.88,28.16-.03.1-.05.2-.05.3l-1.93,11.43c-2.34,1.86-4.45,3.98-6.3,6.33-.43.57-.65.9-.65.9-.24.36-.42.75-.54,1.17l-9.67,37.04c-1.03,1.98-1.57,3.96-1.49,5.89-.11.8.02,1.61.38,2.34,3.61,12.11,31.47,17.51,63.56,12.06,23.76-4.05,45.91-13.93,53.87-23.24,3.07-4.1,2.04-10.29,2.04-10.29l-1.71-40.76c1.03-.81,3.34-2.39,8.2-4.37,5.59-2.28,14.47-8.47,20.83-16.81,5.97-7.85,9.75-17.62,6.44-27.89Zm-52.68-86.02c3.96-1.9,11.38-4.15,20.83-1.28.36.38.71.78,1.03,1.19,2.95,3.87,3.65,9,1.85,13.52-.38.02-.75.1-1.11.22-11.89,4.26-22.45,1.11-22.59,1.09-.4-.12-.81-.18-1.22-.16-2.45-4.69-1.97-10.37,1.22-14.58Zm-48.77.9c6.69-5.12,16.27-3.86,21.4,2.82,5.13,6.69,3.86,16.27-2.82,21.39-6.69,5.13-16.27,3.86-21.39-2.82-5.13-6.69-3.86-16.27,2.82-21.39Zm-37.66,57.75c-.57,3.77-1.76,1.09-1.76,1.09-.21-.82-.39-1.66-.52-2.5-.02-.03-.03-.07-.03-.11-.08-.54-.14-1.11-.19-1.66,0-.14-.03-.3-.03-.43-.12-2.04-.07-4.08.14-6.11,0-.08.03-.19.03-.27v-.05l.16-1.22v-.03c0-.08.03-.14.03-.22.19-1.25.41-2.39.62-3.37.17-.96.41-1.9.73-2.82.16-.54.27-.84.27-.84.05-.05.09-.12.11-.19,1.76-4.43,5.86-10.29,15.23-15.94.58-.29,1.18-.54,1.79-.73l.03-.03.35-.11-.05.03c.27-.05.52-.14.79-.19l.52-.11c2.25-.42,4.57-.32,6.79.27.74,1.63,1.66,3.17,2.74,4.59,8.17,10.62,23.39,12.62,34.02,4.48,1.7-1.3,3.23-2.81,4.53-4.51,2.78-3.63,4.47-7.98,4.86-12.54.05-.22.11-.44.19-.65v-.03c.08-.23.18-.44.3-.65.02,0,.03-.01.03-.03.05-.1.11-.19.19-.27.06-.09.13-.16.22-.22.08-.06.16-.1.24-.14h.03c.19-.08.4-.09.6-.03h.05c.12.03.24.07.35.14l2.15,2.47,1.28,2.42c.67,1.42,1.49,2.77,2.44,4.02,0,0,0,0,0,.01,7.66,10,21.98,11.89,31.98,4.23,1.6-1.23,3.03-2.66,4.26-4.26,1.02-1.33,1.89-2.77,2.58-4.29,1.21,1.58,2.31,3.24,3.29,4.97,4.13,7.36,5.97,15.86,6.19,23.22-2.31-2.42-5.35-4.15-9.45-4.86-9.67-1.68-19.09,1.76-24.19,8.85-2.66,3.75-5.73,11.05-2.58,22.64l-.03-.03v.08c0,.05.03.08.03.14v.03s.03.05.03.08c0,.05.03.08.03.14v.11c.03.18.05.36.05.54v.05c0,.37-.01.74-.05,1.11,0,.08-.03.14-.03.19v.03c-.03.14-.05.24-.08.38-.09.4-.25.78-.49,1.11-.03.03-.03.05-.05.08-.11.17-.25.33-.41.46-.17.17-.36.31-.57.43h-.03c-.2.13-.41.24-.62.33-.57.19-1.11.41-1.66.6-.46.16-.9.33-1.36.49-.09.04-.18.08-.27.11h-.03c-.57.22-1.14.41-1.68.6h-.05c-.52.19-1.03.38-1.52.54-.54.19-1.09.35-1.6.54l-.54.16s-.05.03-.08.03c-.54.19-1.09.38-1.63.54l-1.79.57s-.03.03-.05.03h-.03c-.49.16-1.03.35-1.52.49-.49.14-.98.3-1.44.43-.52.14-1,.3-1.49.43-.43.14-.87.24-1.3.38h-.05s-.03.03-.05.03c-.71.19-1.41.38-2.09.57-.43.14-.87.24-1.3.35-.54.14-1.09.27-1.6.41-.35.08-.73.19-1.11.27-.49.14-.98.24-1.47.35l-1,.24c-.73.19-1.47.33-2.17.49-.24.05-.49.08-.73.14-.57.11-1.11.22-1.66.33l-.87.16c-.49.08-.98.16-1.44.24-.25.06-.5.1-.76.14l-.49.08c-.24.03-.49.08-.73.11-.24.03-.52.08-.76.11h-.03c-34.59,4.51-33.1-23.95-33.02-25.06.11-1.47.27-2.96.49-4.53,1.33-9.58-.14-16.24-4.37-19.79-1.16-.97-2.51-1.68-3.96-2.09-10.97-3.18-11.27,18.46-11.84,22.24Zm48.6,140.59c-28.27,4.48-46.89-3.58-46.89-3.58,0,0,4.89-5.32,18.14-5.59,0,0,4.72-13.01,31.42-18.44,26.69-5.43,40.62,8.28,40.62,8.28,0,0-15.02,14.85-43.28,19.33Zm3.77-38.01c-6.78,1.53-13.43,3.56-19.9,6.08-13.3,5.27-13.63,1.66-13.52.76l3.75-21.18.27-1.52c.07-.24.15-.51.26-.79.27-.71.69-1.54,1.32-2.44.13-.18.26-.36.4-.54.43-.55.95-1.12,1.56-1.7.41-.38.86-.77,1.36-1.16.5-.39,1.05-.77,1.65-1.15.3-.19.61-.38.94-.56,1.33-.68,2.77-1.36,4.29-2.01,3.26-1.36,6.97-2.57,11.13-3.45,1.04-.22,2.11-.42,3.21-.59,2.2-.35,4.51-.61,6.93-.74,1.21-.07,2.45-.11,3.72-.12.63,0,1.28,0,1.92.01,1.95.04,3.95.15,6.03.35,1.38.13,2.79.3,4.23.52,3.6.53,7.37,1.31,11.33,2.4,1.58.43,3.19.92,4.83,1.45.82.27,1.65.55,2.48.84,1.67.58,3.36,1.22,5.09,1.91l1.03,30.87c-9.29-5.27-24.65-9.18-44.31-7.25Zm79.83-67.23v.49l-.08.98c0,.13,0,.25-.03.38-.05.46-.14.9-.22,1.36-.02.02-.03.05-.03.08-.08.41-.16.84-.27,1.25-.03.14-.08.27-.11.41-.07.31-.16.62-.27.92-.05.16-.11.3-.16.46-.08.27-.19.57-.3.84-.05.16-.14.3-.19.46-.14.27-.24.57-.38.84-.05.15-.12.29-.19.43-.14.33-.3.62-.46.95l-.16.33c-.22.43-.46.84-.71,1.25-.05.08-.08.14-.14.22-.22.33-.41.65-.62.98-.11.14-.19.3-.3.43-.16.26-.33.52-.52.76-.11.16-.24.33-.35.49-.19.24-.35.46-.52.68-.14.16-.24.33-.38.49-.16.22-.35.41-.52.62l-.41.49c-.19.22-.35.43-.54.62l-.41.49-.9.98-.57.57c-.14.16-.27.3-.41.43-.19.22-.41.41-.6.6-.14.11-.24.24-.38.35-.19.21-.4.41-.62.6-.12.09-.22.19-.33.3-.22.22-.46.43-.68.62-.08.08-.16.14-.24.22-1.42,1.26-2.91,2.43-4.48,3.5-.6.41-1.19.81-1.76,1.17h-.03s-.05.03-.08.05c-.98.6-1.93,1.11-2.77,1.55-.07.04-.14.08-.22.11-.41.19-.79.38-1.14.52-.73.3-1.41.57-2.06.87-5.05,2.23-7.79,4.21-9.29,5.67-.24-.11-.6-.24-1.03-.41l-.24-.08c-.35-.14-.76-.3-1.22-.46-.05-.03-.08-.03-.14-.05-.03-.03-.07-.05-.11-.05-.43-.19-.95-.35-1.49-.54-.03,0-.05-.03-.08-.03-.08-.03-.19-.05-.27-.08-.33-.11-.65-.22-1-.33-.05-.03-.11-.03-.16-.05h-.03c-.65-.22-1.36-.43-2.09-.65-.05,0-.08-.03-.14-.03s-.08-.03-.14-.03c-.27-.08-.54-.16-.84-.24-.03,0-.05-.03-.08-.03l-.27-.08c-1.82-.54-3.86-1.06-6.08-1.57-.05,0-.11-.03-.14-.03s-.08-.03-.11-.03c-.76-.19-1.52-.35-2.34-.52l-3.29-5.65s-2.55-4.29-2.8,1.09v1.3s.14,2.15-1.52,1.95c-.06-.02-.13-.03-.19-.03-.95-.14-1.93-.24-2.93-.35-.22-.03-.41-.03-.6-.05-.81-.08-1.63-.16-2.47-.22-.33,0-.65-.03-.98-.05-.76-.05-1.52-.11-2.28-.14-.33,0-.65-.03-.98-.03-1.09-.03-2.17-.05-3.26-.05h-.19c-5.27.32-10.49,1.17-15.59,2.53-19.17,5.29-19.06-9.45-17.7-17.46,1-3.61,4.91-9.88,19.74-10.54.52-.03,1.06-.03,1.6-.05h.41c.49.11,1.06.24,1.66.38h.03c.6.14,1.22.3,1.85.46,1.3.35,2.63.73,3.86,1.17.87.33,1.68.65,2.42.98.03.03.08.03.11.05.33.16.65.33.92.49.05.03.08.05.14.08.27.16.54.35.76.52,3.37,2.69,9.15-5.43,9.15-5.43,0,0,.81-1.71,6.08-3.69,1.79-.52,3.61-1.06,5.48-1.66,1.76-.54,7.25-1.87,13.11.3,3.06,1.15,6.25,1.9,9.5,2.23.21.05.43.06.65.05h.27c.14,0,.27-.02.41-.05.23-.03.46-.08.68-.16h.05c.13-.04.26-.08.38-.14v.03s6.82-3.23,2.53-12.46-8.42-15.04-5.13-23.35c3.29-8.31,15.1-7.33,15.1-7.33v-.05c.11.03.24.03.35.05.51.08,1.01.21,1.49.38h.03c.46.16.9.35,1.33.57,1.55.83,2.82,2.1,3.67,3.64,0,.03.03.03.03.05.19.33.35.65.52.98.03.03.03.08.05.11.16.35.3.68.46,1.06t.03.05c.64,1.69,1.16,3.42,1.55,5.19.03.14.05.24.08.38.08.38.16.76.24,1.17.05.19.08.41.14.62.08.38.14.73.22,1.11.05.3.11.57.16.87.05.35.14.65.19,1.03.05.38.14.76.19,1.17.05.27.08.54.14.84.11.68.24,1.38.35,2.12.9,5.59,1.9,11.92,3.88,17.97.16.44.28.9.38,1.36.03.14.05.3.08.43.05.3.11.62.16.92.03.16.03.35.05.52.03.3.05.57.08.87,0,.16.03.35.03.52,0,.28,0,.56-.05.84Z"/></svg>