<?xml version="1.0" encoding="UTF-8"?><svg id="Layer_2" xmlns="http://www.w3.org/2000/svg" viewBox="0 0 398.51 398.13"><path d="m199.25,0C89.21,0,0,89.12,0,199.07s89.21,199.07,199.25,199.07,199.25-89.12,199.25-199.07S309.3,0,199.25,0Zm82.75,286.97c-62.76,0-84.55-28.28-96.03-63.48l-11.48-36.25c-8.7-26.53-18.79-47.18-50.67-47.18-22.14,0-44.64,15.96-44.64,60.55,0,34.86,17.76,56.64,42.84,56.64,28.27,0,47.17-21.07,47.17-21.07l11.59,31.57-.03.16s-19.62,19.21-60.55,19.21c-50.83,0-79.14-29.88-79.14-84.97s28.31-91.03,80.58-90.88c48.31,0,72.67,17.46,87.9,64.57l11.9,36.25c8.7,26.52,23.94,45.72,60.54,45.72,24.77,0,37.85-5.56,37.85-18.99,0-10.51-6.12-18.23-24.56-22.61l-24.56-5.82c-30.06-7.22-41.97-22.81-41.97-47.52,0-39.49,31.87-51.85,64.58-51.85,36.97,0,59.58,13.4,62.51,46.03l-36.19,4.39c-1.59-15.61-10.86-22.15-28.32-22.15-16.01,0-25.74,7.27-25.74,19.61,0,10.87,4.75,17.4,20.8,21.07l23.17,5.05c31.11,7.25,47.89,22.5,47.89,51.84,0,36.35-30.48,50.1-75.44,50.1Z"/></svg>