<?xml version="1.0" encoding="UTF-8"?><svg xmlns="http://www.w3.org/2000/svg" viewBox="0 0 398.51 398.13"><defs><style>.cls-1{fill:#dddcdb;}.cls-2{fill:#eda920;}.cls-3{fill:#cdcccc;}.cls-4{fill:#feda47;}</style></defs><g id="Layer_5"><ellipse cx="199.25" cy="199.07" rx="199.25" ry="199.07"/></g><g id="Layer_2"><g><path class="cls-1" d="m199.58,62.86l-80.01,46.28v33.06l-36.37-21.16v142.82l123.64,71.41v-41.66l28.43,16.53,80.01-46.28v-134.22l-115.71-66.78Zm107.78,196.38l-72.07,41.66-36.37-21.16v41.66l-107.78-62.15v-124.97l36.37,21.16v-41.66l72.07-41.66,108.44,62.81-.66,124.31h0Z"/><polygon class="cls-4" points="187.02 148.15 151.32 169.31 199.58 196.42 235.29 175.92 187.02 148.15"/><polygon class="cls-2" points="235.29 231.46 199.58 252.62 199.58 196.42 235.29 175.92 235.29 231.46"/><polygon class="cls-3" points="199.58 86 151.32 113.77 241.24 165.34 289.51 137.57 199.58 86"/><polygon class="cls-3" points="247.19 175.92 295.46 148.15 295.46 252.62 247.19 280.39 247.19 175.92"/><polygon class="cls-3" points="103.05 155.43 187.02 203.69 187.02 300.89 103.05 252.62 103.05 155.43"/></g></g></svg>