<?xml version="1.0" encoding="UTF-8"?><svg id="Layer_2" xmlns="http://www.w3.org/2000/svg" xmlns:xlink="http://www.w3.org/1999/xlink" viewBox="0 0 398.73 398.65"><defs><style>.cls-1{fill:url(#linear-gradient-2);}.cls-2{fill:#191b1a;}.cls-3{fill:url(#linear-gradient-3);}.cls-4{fill:url(#linear-gradient);}.cls-5{fill:url(#linear-gradient-4);}</style><linearGradient id="linear-gradient" x1="198.54" y1="236.33" x2="198.54" y2="350.78" gradientTransform="translate(0 400.13) scale(1 -1)" gradientUnits="userSpaceOnUse"><stop offset="0" stop-color="#773914"/><stop offset="1" stop-color="#dc6d33"/></linearGradient><linearGradient id="linear-gradient-2" x1="214.89" y1="95.01" x2="197.38" y2="215.42" gradientTransform="translate(0 400.13) scale(1 -1)" gradientUnits="userSpaceOnUse"><stop offset="0" stop-color="#dc7c39"/><stop offset="1" stop-color="#ccae60"/></linearGradient><linearGradient id="linear-gradient-3" x1="214.2" y1="41.9" x2="214.2" y2="134.7" gradientTransform="translate(0 400.13) scale(1 -1)" gradientUnits="userSpaceOnUse"><stop offset="0" stop-color="#e1b666"/><stop offset="1" stop-color="#e4c493"/></linearGradient><linearGradient id="linear-gradient-4" x1="248.24" y1="113.19" x2="239.75" y2="189.13" xlink:href="#linear-gradient-3"/></defs><path class="cls-2" d="m240.28,119.7c30.47,12.31,84.39,10.55,117.8,7.62-27.54-60.36-88.49-102.56-158.82-102.56-33.99,0-65.05,9.38-92.01,26.37,58.6-27.54,86.73,49.23,133.03,68.57Z"/><path d="m398.51,199.4c0,110.17-89.08,199.26-199.26,199.26S0,309.57,0,199.4,89.08.14,199.25.14s199.26,89.66,199.26,199.25Z"/><path class="cls-4" d="m302.08,192.15c26.98,1.79,51.62-5.37,70.39-13.73-2.35-17.91-7.04-34.63-14.08-50.15-33.44,2.99-87.41,4.78-117.91-7.76-46.34-19.7-76.85-99.1-133.16-69.85C57.46,82.3,24.61,137.83,24.61,202.3c0,16.72,2.35,32.84,6.45,47.76,27.57-25.07,85.65-72.24,137.86-86.57,70.39-19.1,75.09,25.07,133.16,28.66Z"/><path class="cls-1" d="m372.14,176.54c-18.75,8.2-43.37,14.65-70.33,13.48-58.02-3.52-62.71-47.47-133.62-28.13-51.57,14.07-109.59,60.95-137.72,84.98,5.86,19.93,14.65,38.68,26.96,55.67,18.75-15.83,41.61-30.47,66.81-35.75,72.08-15.24,72.08,36.33,133.03,29.3,33.41-4.1,79.12-36.34,113.69-64.47,1.76-9.96,2.93-20.51,2.93-31.06,0-8.79-.59-16.41-1.76-24.03Z"/><path class="cls-3" d="m124.24,266.21c-25.2,5.27-48.06,19.92-66.81,35.75,31.65,43.95,83.22,72.67,141.82,72.67,86.15,0,157.06-62.12,171.71-143.58-34.58,28.13-80.29,60.36-113.69,64.47-60.95,7.03-60.95-45.13-133.03-29.3Z"/><path class="cls-5" d="m272.51,232.22c7.03,17.58.59,36.92-15.82,43.95-15.82,6.45-34.58-2.34-42.19-19.34-7.03-17.58-.59-36.92,15.82-43.95,16.41-7.03,35.16,1.76,42.19,19.34Z"/></svg>