<?xml version="1.0" encoding="UTF-8"?><svg id="Layer_2" xmlns="http://www.w3.org/2000/svg" viewBox="0 0 397.77 398.13"><path d="m198.52,0C94.21,0,8.64,80.08,0,182.06l104.01,43c9.06-6.2,20.02-9.83,31.8-9.83,1.06,0,2.11.04,3.15.09l47.58-68.96c0-.33,0-.65,0-.97,0-41.51,33.76-75.27,75.27-75.27s75.27,33.77,75.27,75.27-33.76,75.28-75.27,75.28c-.57,0-1.14-.01-1.71-.03l-67.85,48.41c.04.88.07,1.78.07,2.67,0,31.16-25.34,56.5-56.5,56.5-27.35,0-50.21-19.52-55.39-45.37L6.49,252.3c23.31,84.09,100.45,145.83,192.03,145.83,110.04,0,199.25-89.12,199.25-199.07S308.57,0,198.52,0Z"/><path d="m122.1,300.1l-24.52-10.13c4.35,9.05,11.86,16.62,21.84,20.78,21.58,8.99,46.45-1.25,55.44-22.84,4.35-10.44,4.38-21.97.06-32.44-4.31-10.47-12.44-18.64-22.89-23-10.37-4.32-21.49-4.16-31.25-.47l25.33,10.47c15.91,6.63,23.44,24.91,16.81,40.82-6.62,15.92-24.91,23.44-40.82,16.81Z"/><path d="m311.95,145.39c0-27.65-22.5-50.16-50.16-50.16s-50.16,22.5-50.16,50.16,22.5,50.15,50.16,50.15c27.66,0,50.16-22.5,50.16-50.15Zm-87.75-.09c0-20.81,16.87-37.68,37.68-37.68s37.68,16.87,37.68,37.68-16.87,37.68-37.68,37.68-37.68-16.87-37.68-37.68Z"/></svg>