<?xml version="1.0" encoding="UTF-8"?><svg id="Layer_5" xmlns="http://www.w3.org/2000/svg" viewBox="0 0 649 649"><path d="m324.5,0C145.28,0,0,145.28,0,324.5s145.28,324.5,324.5,324.5,324.5-145.28,324.5-324.5S503.72,0,324.5,0Zm249.89,316.3l-148.69-19.57c-5.59-22.59-18.7-42.49-36.75-56.76l93.2-24.97-28.78-107.43c72.13,43.49,119.23,121.82,121.02,208.74Zm-255.46-244.53l-.85,6.49-132.24,35.44c38.64-25.75,84.52-40.93,133.1-41.93Zm-198.74,105.72l21.95,81.91-57.81-7.61c7.87-27.11,20.14-52.09,35.86-74.29Zm134.22,384.35c-104.54-30.34-177.77-125.78-180.02-234.61l148.69,19.58c6.97,28.17,25.5,52.31,50.91,66.34l-19.58,148.69Zm41.73-306.93l-135.55,36.33-40.22-150.08L430.2,58.14l40.22,150.08-135.55,36.33,46.66,174.18-35.77,9.58v.05s-2.94.79-2.94.79l-46.68-174.25Zm100.62,201.3h0s5.18,19.34,5.18,19.34l-40.68,10.9v.05s-7.72,2.07-7.72,2.07l-5.17-19.3,41.61-11.15v-.04s6.79-1.82,6.79-1.82v-.05Zm7.77,29.02h0s5.2,19.39,5.2,19.39l-40.64,10.89v.05s-7.73,2.08-7.73,2.08v.04s-.01,0-.01,0l-5.19-19.39,41.61-11.15v-.04s6.79-1.82,6.79-1.82v-.05Zm-51.07-27.8v.05s-7.71,2.07-7.71,2.07l-5.19-19.38,41.67-11.17v-.04s6.73-1.81,6.73-1.81l5.19,19.37-40.69,10.9Zm-15.45-26.94h-.05s0,0,0,0h.05s0,0,0,0Zm-8.18,141.29l11.88-90.27,23.3,86.98c-11.53,1.9-23.27,3.04-35.19,3.29Zm34.08-44.41l41.61-11.15v-.04s6.79-1.82,6.79-1.82v-.05s0,0,0,0l5.19,19.38-40.7,10.9v.05s-7.71,2.07-7.71,2.07l-5.18-19.34Zm20.73,46.27l-7.75,2.08v.04s-.01,0-.01,0l-5.18-19.34,41.6-11.15v-.04s6.79-1.82,6.79-1.82v-.05s0,0,0,0l5.18,19.34-40.64,10.89v.05Zm46.58-25.84l-38.05-142.02-4.84,1.3-.64-2.39c11.4-8.7,21.01-19.73,28.07-32.5l148.69,19.58c-20.34,70.08-69.96,126.04-133.23,156.03Z"/></svg>