<?xml version="1.0" encoding="UTF-8"?><svg id="Layer_2" xmlns="http://www.w3.org/2000/svg" viewBox="0 0 398.51 398.73"><g id="g4146"><path id="path4148" d="m179.38,397.91c-30.7-2.94-61.78-13.96-88.47-31.38-22.37-14.6-27.42-20.6-27.42-32.57,0-24.05,26.45-66.18,71.7-114.21,25.7-27.28,61.49-59.25,65.37-58.38,7.52,1.68,67.69,60.37,90.21,88,35.62,43.69,51.99,79.46,43.67,95.41-6.32,12.12-45.56,35.82-74.39,44.92-23.76,7.5-54.96,10.68-80.66,8.22h0Zm-146.11-88.96C14.68,280.43,5.29,252.35.75,211.74c-1.5-13.41-.96-21.08,3.4-48.6,5.44-34.3,24.97-73.99,48.45-98.41,10-10.4,10.89-10.66,23.08-6.55,14.8,4.99,30.6,15.9,55.11,38.06l14.3,12.93-7.81,9.59c-36.25,44.53-74.52,107.66-88.94,146.71-7.84,21.23-11,42.54-7.63,51.42,2.28,5.99.19,3.76-7.44-7.94Zm326.32,4.85c1.84-8.97-.49-25.43-5.93-42.04-11.79-35.97-51.2-102.87-87.39-148.36l-11.39-14.32,12.32-11.32c16.09-14.78,27.26-23.62,39.32-31.14,9.51-5.93,23.11-11.18,28.95-11.18,3.6,0,16.29,13.16,26.52,27.53,15.86,22.25,27.52,49.22,33.43,77.29,3.82,18.14,4.14,56.97.62,75.06-2.89,14.85-8.99,34.11-14.95,47.18-4.46,9.79-15.56,28.8-20.42,34.99q-2.5,3.18-1.1-3.69h0ZM182.67,48.65c-16.7-8.48-42.45-17.58-56.68-20.03-4.99-.86-13.5-1.34-18.91-1.06-11.74.59-11.22-.02,7.62-8.92,15.66-7.4,28.72-11.75,46.45-15.47,19.94-4.19,57.43-4.24,77.06-.1,21.2,4.47,46.16,13.76,60.23,22.41l4.18,2.57-9.59-.48c-19.06-.96-46.84,6.74-76.66,21.25-9,4.38-16.82,7.87-17.39,7.77-.57-.1-7.9-3.68-16.3-7.94Z"/></g></svg>