<?xml version="1.0" encoding="UTF-8"?><svg id="Layer_2" xmlns="http://www.w3.org/2000/svg" viewBox="0 0 398.51 398.13"><polygon points="176.57 237.02 242.31 199.07 176.57 161.11 176.57 237.02"/><path d="m199.25,0C89.21,0,0,89.12,0,199.07s89.21,199.07,199.25,199.07,199.25-89.12,199.25-199.07S309.3,0,199.25,0Zm123.88,259.98c-2.92,10.89-11.48,19.46-22.37,22.37-19.73,5.29-98.87,5.29-98.87,5.29,0,0-79.14,0-98.87-5.29-10.89-2.92-19.46-11.48-22.37-22.37-5.29-19.73-5.29-60.91-5.29-60.91,0,0,0-41.18,5.29-60.91,2.92-10.89,11.48-19.46,22.37-22.37,19.73-5.29,98.87-5.29,98.87-5.29,0,0,79.14,0,98.87,5.29,10.89,2.92,19.46,11.48,22.37,22.37v121.82Z"/></svg>